<?xml version="1.0" encoding="UTF-8" standalone="no"?>
<!-- Created with Inkscape (http://www.inkscape.org/) -->

<svg
   width="67.73333mm"
   height="67.73333mm"
   viewBox="0 0 67.73333 67.73333"
   version="1.1"
   id="svg5"
   inkscape:version="1.1.1 (3bf5ae0d25, 2021-09-20)"
   sodipodi:docname="pattern.svg"
   xmlns:inkscape="http://www.inkscape.org/namespaces/inkscape"
   xmlns:sodipodi="http://sodipodi.sourceforge.net/DTD/sodipodi-0.dtd"
   xmlns="http://www.w3.org/2000/svg"
   xmlns:svg="http://www.w3.org/2000/svg">
  <sodipodi:namedview
     id="namedview7"
     pagecolor="#ffffff"
     bordercolor="#666666"
     borderopacity="1.0"
     inkscape:pageshadow="2"
     inkscape:pageopacity="0.0"
     inkscape:pagecheckerboard="0"
     inkscape:document-units="mm"
     showgrid="false"
     showguides="true"
     inkscape:guide-bbox="true"
     inkscape:snap-bbox="true"
     inkscape:bbox-nodes="true"
     inkscape:bbox-paths="true"
     inkscape:snap-bbox-edge-midpoints="true"
     inkscape:snap-bbox-midpoints="true"
     inkscape:object-paths="true"
     inkscape:snap-intersection-paths="true"
     inkscape:snap-smooth-nodes="true"
     inkscape:snap-midpoints="true"
     inkscape:snap-object-midpoints="true"
     inkscape:snap-center="true"
     inkscape:snap-text-baseline="true"
     inkscape:snap-page="true"
     inkscape:snap-global="true"
     inkscape:zoom="2"
     inkscape:cx="127.5"
     inkscape:cy="57.25"
     inkscape:window-width="1920"
     inkscape:window-height="1001"
     inkscape:window-x="-9"
     inkscape:window-y="-9"
     inkscape:window-maximized="1"
     inkscape:current-layer="layer1"
     fit-margin-top="0"
     fit-margin-left="0"
     fit-margin-right="0"
     fit-margin-bottom="0" />
  <defs
     id="defs2" />
  <g
     inkscape:label="Capa 1"
     inkscape:groupmode="layer"
     id="layer1"
     style="display:inline"
     transform="translate(-72.936115,-124.87455)">
    <path
       id="rect4378"
       style="fill:#000000;fill-opacity:1;stroke:none;stroke-width:9.44882"
       d="m 305.60938,471.96681 c 0.017,0.32247 0.0664,0.64028 0.0664,0.96679 0,3.30868 -0.63512,5.57175 -2.07813,7.40625 -1.14266,1.45267 -3.05516,3.20075 -4.25,3.88477 -1.29324,0.74033 -7.83782,1.46402 -16.17187,1.78906 -3.05709,0.11924 -5.4736,0.24127 -7.50196,0.38281 l -0.01,11.69726 c 3.99029,-3.26637 6.71913,-4.88717 9.08985,-5.45898 1.51994,-0.36662 3.33605,-0.0776 4.39843,0.69921 1.30719,0.95585 1.62854,2.04007 1.16016,3.90625 -0.50837,2.02549 -2.61917,3.57642 -9.7832,7.18946 -1.69445,0.85456 -3.27068,1.72839 -4.86524,2.59765 v 21.54493 c 0.78714,-0.29217 1.48352,-0.63445 1.94141,-1.04883 1.06518,-0.96397 3.40114,-4.16912 5.19141,-7.12305 2.09078,-3.44976 4.26855,-5.72445 6.08984,-6.35937 1.55951,-0.54369 3.48096,-0.7422 4.26953,-0.43946 1.8026,0.69173 2.75583,3.56302 1.91211,5.76172 -0.35412,0.92281 -1.96357,2.3614 -3.57617,3.19531 -1.6126,0.83388 -3.80816,2.39215 -4.87891,3.46289 -2.17649,2.17648 -2.58211,6.91204 -0.74805,8.7461 0.66,0.66002 2.90963,1.20117 4.99805,1.20117 2.95698,0 4.68139,-0.80019 7.79297,-3.61133 2.23656,-2.02057 4.47719,-5.21684 5.08984,-7.26172 1.30662,-4.36108 0.81854,-15.86227 -1.09765,-25.86914 -1.32091,-6.89816 -1.28974,-7.37156 0.66406,-10 2.51127,-3.37837 7.1713,-4.22997 9.05469,-1.65429 2.87924,3.93762 0.63174,29.02541 -4.24024,47.33007 -1.38988,5.22191 -4.07215,12.7078 -5.96093,16.63477 -2.0136,4.18643 -5.10457,8.64749 -7.47071,10.78516 -2.21947,2.00515 -4.8485,3.64648 -5.84179,3.64648 -0.9933,0 -2.66834,-0.6314 -3.72266,-1.40234 -1.54463,-1.12944 -2.04058,-3.15349 -2.55469,-10.42383 -0.4384,-6.19956 -1.24582,-10.06508 -2.58008,-12.34961 -0.82175,-1.40705 -2.57706,-3.19817 -4.33203,-4.51563 v 59.31641 c 1.59203,-0.25758 3.00939,-0.61948 3.80078,-1.03125 1.48519,-0.77272 3.65414,-2.46024 4.82032,-3.75 1.16617,-1.28973 4.22616,-6.46356 6.80078,-11.49805 3.23281,-6.32152 6.32109,-10.70514 9.98047,-14.16601 3.16078,-2.98934 6.97387,-5.51225 9.44921,-6.25391 3.25524,-0.97546 5.01141,-0.98399 8.15235,-0.043 2.21856,0.66471 4.72611,2.30102 5.62305,3.66992 1.1555,1.76349 1.49487,3.97492 1.18359,7.72852 -0.30112,3.63111 -2.00091,8.50207 -5.49219,15.73828 -3.515,7.28538 -7.05947,12.76451 -11.62695,17.97852 -3.61349,4.12501 -9.29746,9.89063 -12.63086,12.81054 -5.68582,4.98059 -6.06055,5.57935 -6.06055,9.69336 0,3.19234 0.65667,5.14891 2.41211,7.19141 2.13249,2.48122 3.26032,2.86252 9.75,3.30469 7.16458,0.48816 7.34709,0.5685 7.66211,3.3164 0.17746,1.54806 -0.36686,3.86517 -1.20898,5.15039 -0.84212,1.28523 -3.56916,3.11491 -6.06055,4.06641 -3.05979,1.17041 -6.06521,1.55745 -9.25977,1.19727 -3.6493,-0.41133 -5.36469,-1.24354 -7.51171,-3.64649 -2.13531,-2.38979 -2.77331,-4.1002 -2.7461,-7.34961 0.0196,-2.32883 0.68756,-6.93439 1.48438,-10.23437 0.79682,-3.30002 1.45382,-7.8844 1.46289,-10.18946 0.009,-2.30502 -0.54688,-4.55503 -1.23438,-5 -0.6875,-0.44507 -3.44212,-0.81054 -6.12304,-0.81054 -1.04611,0 -1.88397,-0.0586 -2.62696,-0.15039 v 60.48437 c 1.97992,-1.05199 4.63368,-2.74485 6.64844,-4.2832 2.56707,-1.9601 6.94307,-4.23844 9.72461,-5.06446 3.91147,-1.1616 5.80444,-1.25601 8.34961,-0.41601 2.10746,0.69551 3.50004,1.92014 3.87305,3.40625 0.98056,3.9069 0.0377,6.8962 -2.58399,8.19726 -1.375,0.68236 -5.05435,2.34707 -8.17773,3.69727 -3.96568,1.71428 -6.15326,3.36923 -7.24805,5.48633 -1.11593,2.15796 -1.30382,3.72329 -0.6543,5.43164 0.50187,1.32004 2.29337,2.97109 3.98047,3.66992 1.73089,0.71698 4.50098,1.00082 6.35938,0.65234 3.50467,-0.65748 12.03296,-5.53494 28.1914,-16.12695 5.47291,-3.58753 11.77291,-7.04243 14,-7.67773 2.22709,-0.6353 4.61133,-1.58247 5.29883,-2.10352 0.6875,-0.52104 1.25,-1.60165 1.25,-2.40234 0,-1.07237 -0.98019,-1.3708 -3.72461,-1.12891 -2.80873,0.24749 -3.80478,-0.07 -4.04883,-1.29297 -0.21817,-1.0933 0.95097,-2.1324 3.58789,-3.1875 5.74844,-2.30007 15.51142,-4.6914 19.1543,-4.6914 2.48737,0 3.1054,0.38071 2.8457,1.75 -0.20903,1.1023 -1.43798,1.87384 -3.32226,2.08398 -1.6453,0.1835 -3.78218,1.04287 -4.74805,1.91016 -0.96587,0.86721 -2.03692,1.29706 -2.38086,0.95312 -0.34395,-0.34393 -1.49539,-0.1608 -2.55859,0.40821 -1.5411,0.82476 -1.69241,1.32459 -0.74609,2.46484 0.65285,0.78663 1.82078,1.42969 2.5957,1.42969 0.77491,0 1.65498,-0.63982 1.95508,-1.42188 0.36644,-0.9549 2.96472,-1.64754 7.91406,-2.11133 9.64087,-0.90342 16.51518,0.71893 20.77344,4.9043 1.76201,1.73186 3.9642,4.59847 4.89453,6.36914 0.93033,1.77067 3.18031,4.12692 5,5.23633 1.81965,1.10944 4.47178,2.01948 5.89258,2.02148 1.42083,0.002 2.85811,0.27804 3.19335,0.61328 0.33536,0.33536 -0.26528,2.24041 -1.33398,4.23438 -1.0687,1.99397 -1.94336,4.95515 -1.94336,6.58008 0,2.24371 1.17095,4.05026 4.86914,7.51367 2.67829,2.50825 5.37827,5.54477 6,6.74609 0.62173,1.20133 1.13086,3.36034 1.13086,4.79883 0,1.43849 -0.65762,3.8901 -1.46289,5.44727 -0.80523,1.5572 -2.94274,4.01603 -4.75,5.46484 -1.76999,1.41893 -3.7255,2.99731 -4.46484,3.60352 h 36.68164 c -2.66579,-2.63292 -5.91363,-7.00737 -7.95313,-11 -1.54522,-3.02499 -4.49547,-10.225 -6.55664,-16 -2.06113,-5.77501 -4.32177,-11.62564 -5.02344,-13.00196 -0.70166,-1.37627 -2.15679,-3.30016 -3.23437,-4.27539 -1.92934,-1.74599 -1.90145,-1.83093 1.89648,-5.6289 3.16464,-3.1646 3.85743,-4.56141 3.85743,-7.7793 0,-3.72068 -1.54316,-6.77204 -7.71875,-15.25391 -1.27219,-1.74731 -1.7773,-4.3003 -1.7793,-9 -0.001,-3.60842 0.62432,-8.7187 1.39062,-11.35742 0.76634,-2.63871 2.63551,-6.12624 4.15235,-7.75 1.62516,-1.73971 3.77997,-2.95312 5.24609,-2.95312 1.36838,0 3.48747,0.812 4.71094,1.80273 2.22251,1.79966 2.22396,1.80579 0.45117,7.42969 -1.66734,5.2893 -1.67391,5.78463 -0.0918,8.19922 1.24339,1.89762 2.54513,2.56836 4.97461,2.56836 2.32177,0 4.10372,-0.85026 6.05664,-2.88868 1.52198,-1.58861 3.15954,-4.62609 3.63868,-6.75 1.31667,-5.83676 -0.55,-11.69153 -5.00977,-15.7207 -2.17266,-1.96286 -6.51064,-4.30511 -10.33008,-5.57617 -3.62184,-1.20525 -8.07196,-3.17453 -9.88867,-4.37695 -1.99801,-1.32235 -4.48807,-4.55821 -6.30273,-8.1875 -2.70917,-5.41864 -2.99742,-6.92051 -2.97852,-15.5 0.0167,-7.17944 0.58536,-11.20987 2.32617,-16.5 1.26694,-3.85002 3.85185,-9.78613 5.74414,-13.19141 1.8923,-3.40524 6.74463,-10.38025 10.78321,-15.5 4.03857,-5.11975 8.30686,-11.20197 9.48437,-13.51758 1.17751,-2.31556 2.14063,-5.77204 2.14063,-7.67969 0,-1.90764 -0.70801,-4.17476 -1.57227,-5.03906 -0.8643,-0.86426 -2.45921,-1.57226 -3.54492,-1.57226 -1.08571,0 -3.07325,1.10055 -4.41797,2.44531 -2.22871,2.22871 -2.38942,2.97667 -1.81641,8.45898 0.41394,3.96004 0.1918,7.07032 -0.65039,9.10352 -0.70348,1.69837 -2.56612,3.75324 -4.13867,4.56641 -1.57251,0.8132 -2.90821,1.1278 -2.9668,0.70117 -0.0582,-0.4266 -0.16905,-1.62309 -0.24804,-2.66016 -0.079,-1.03703 -0.93204,-2.38401 -1.89453,-2.99414 -1.27231,-0.80583 -2.2277,-0.8095 -3.5,-0.0117 -1.18942,0.74585 -1.85054,2.66246 -2.06446,5.98633 -0.17529,2.72375 -1.03903,5.6915 -1.94922,6.69727 -1.04481,1.1546 -2.71307,1.69867 -4.62695,1.50781 -2.43685,-0.24303 -3.14853,-0.90345 -3.82812,-3.54492 -0.45918,-1.78462 -1.88547,-3.93115 -3.16797,-4.77149 -1.34079,-0.87965 -3.1354,-1.24144 -4.22266,-0.85351 -3.42644,1.22256 -5.39062,3.63709 -5.39062,6.625 0,1.99929 0.98955,3.8682 3.08398,5.82422 2.55322,2.38495 2.97371,3.38309 2.44141,5.80664 -0.35362,1.61004 -2.17025,5.07733 -4.03711,7.70312 -3.46999,4.88058 -10.06085,10.01456 -14.18164,11.04883 -1.26653,0.31835 -2.97846,0.31905 -3.80469,0.002 -0.82623,-0.31706 -1.50195,-1.3854 -1.50195,-2.375 0,-0.98959 1.125,-3.45503 2.5,-5.47851 1.375,-2.02353 2.5,-4.57221 2.5,-5.66211 0,-2.46902 -2.55904,-5.12305 -4.9375,-5.12305 -2.68588,0 -7.12392,3.90192 -8.6836,7.63477 -0.75835,1.81496 -1.3789,5.58781 -1.3789,8.38281 0,2.795 0.67907,6.39588 1.50976,8.00195 0.83069,1.60638 2.3774,3.3829 3.43555,3.94922 2.46495,1.31928 8.15825,1.32118 11.62305,0.004 1.48414,-0.56429 5.90029,-4.12759 9.81445,-7.91993 3.91419,-3.79237 8.3431,-7.20162 9.84179,-7.57617 2.29701,-0.57403 2.9133,-0.26861 3.92383,1.94922 1.02278,2.2447 0.9034,3.02999 -0.8164,5.35156 -1.10865,1.49662 -4.56226,4.52267 -7.67383,6.72266 -3.11161,2.20003 -6.84781,5.67755 -8.30274,7.72852 -1.68347,2.3732 -2.81611,5.51881 -3.11718,8.65234 -0.36796,3.8293 0.0811,6.13782 2.02539,10.38477 1.37499,3.00336 4.01679,6.64427 5.86914,8.09179 1.85238,1.44749 5.84217,4.33792 8.86719,6.42188 4.15249,2.86072 5.8179,4.75208 6.79687,7.72461 1.01152,3.07162 1.04525,4.98335 0.1543,8.69726 -0.62808,2.61816 -2.40886,6.50931 -3.95703,8.64649 -1.54814,2.13717 -4.79761,4.84655 -7.22071,6.01953 -5.42899,2.62817 -13.2504,2.89065 -14.59375,0.49023 -0.50536,-0.90312 -0.69885,-2.47813 -0.43164,-3.5 0.37641,-1.43939 1.43255,-1.85742 4.69336,-1.85742 3.1067,0 4.7799,-0.60614 6.38477,-2.31445 1.19588,-1.27295 2.17383,-3.22889 2.17383,-4.34571 0,-1.11681 -0.82232,-2.77528 -1.82813,-3.68554 -1.00581,-0.91023 -3.2395,-1.6543 -4.96289,-1.6543 -2.39195,0 -4.62203,1.32791 -9.42188,5.61133 -3.45829,3.08617 -8.82314,6.89054 -11.92187,8.45508 -6.37045,3.21637 -19.55738,6.93359 -24.59961,6.93359 -2.23102,0 -4.17936,-0.82391 -5.81055,-2.45508 -1.83231,-1.83231 -2.45507,-3.52805 -2.45507,-6.68555 0,-2.32633 0.93792,-6.16578 2.08398,-8.5332 2.30946,-4.77071 9.08735,-11.23212 14.45508,-13.7793 4.57053,-2.16884 11.28258,-2.44271 12.5039,-0.51171 0.50956,0.80564 0.93347,3.08133 0.94141,5.05859 0.0173,4.05986 2.44655,6.90625 5.89453,6.90625 3.49913,0 7.94715,-2.76568 9.60352,-5.96875 0.83431,-1.61337 1.51758,-4.32091 1.51758,-6.01758 0,-1.69667 -0.72161,-4.18532 -1.60352,-5.53125 -0.88191,-1.346 -3.07168,-3.35517 -4.86719,-4.46484 -4.79815,-2.96542 -12.29634,-2.64555 -23.02929,0.98242 -4.88135,1.65003 -10.16415,3 -11.73829,3 -1.57413,0 -4.18155,-0.68329 -5.79492,-1.51758 -1.61338,-0.83433 -3.61491,-2.83777 -4.44922,-4.45117 -0.83431,-1.61337 -1.51905,-4.64261 -1.51953,-6.73242 -4.7e-4,-2.08978 1.65538,-8.97383 3.67969,-15.29883 2.53998,-7.93621 4.53255,-12.35222 6.42578,-14.25 1.50886,-1.51253 3.42003,-2.75 4.24805,-2.75 2.15926,0 4.64844,2.79194 4.64844,5.21484 0,1.14017 -2.02501,6.4912 -4.5,11.89063 -2.47501,5.39939 -4.5,10.99319 -4.5,12.43164 0,1.58181 1.20516,3.82041 3.04882,5.66406 2.67053,2.67058 3.54953,2.98178 7.09766,2.50586 2.25481,-0.30244 5.15684,-1.57669 6.54688,-2.875 1.37318,-1.28258 3.17887,-3.64675 4.01367,-5.25195 1.92506,-3.70163 1.21955,-9.35146 -2.22461,-17.78906 -1.41237,-3.46009 -2.83255,-8.178 -3.1543,-10.48438 -0.47311,-3.39156 -0.0837,-5.04783 2.0332,-8.66016 1.49043,-2.5432 9.73241,-11.0302 19.14063,-19.70898 9.08753,-8.38292 17.41642,-16.68795 18.50976,-18.45703 1.09335,-1.76908 1.98829,-4.62008 1.98829,-6.33399 0,-1.99328 -0.99097,-4.21475 -2.75,-6.16601 -4.90394,-5.4398 -13.97653,-4.99034 -18.16211,0.90039 -1.02308,1.43985 -2.85772,5.99413 -4.07813,10.11914 -1.22041,4.12498 -3.40621,9.93337 -4.85547,12.9082 -3.04589,6.25225 -10.1247,14.50675 -14.28515,16.65821 -1.57849,0.81615 -2.86914,1.23431 -2.86914,0.92968 0,-0.30482 1.38985,-3.3061 3.08789,-6.66992 3.08734,-6.11599 3.08708,-6.11521 1.15039,-8.7207 -1.33155,-1.79135 -3.04757,-2.70077 -5.49219,-2.91016 -2.77015,-0.23739 -3.90661,0.19551 -5.14453,1.96289 -0.87392,1.24766 -1.8784,4.4523 -2.23242,7.1211 -0.35403,2.6688 -1.28953,5.49655 -2.07813,6.28515 -0.7886,0.7886 -2.23156,1.43555 -3.20703,1.43555 -0.97547,0 -2.45032,-0.78751 -3.27734,-1.75 -2.06047,-2.398 -5.10204,-20.9268 -5.05664,-30.80664 0.0408,-8.87921 1.67609,-18.38061 3.9121,-22.73633 0.78858,-1.53615 2.53183,-3.21197 3.875,-3.72266 1.34318,-0.51061 3.40549,-0.57196 4.58204,-0.13671 1.17655,0.43525 3.33702,2.55911 4.80078,4.7207 1.84724,2.72784 3.51706,4.03022 5.45898,4.25586 1.64214,0.19071 3.58702,-0.38893 4.70899,-1.4043 1.96403,-1.77743 2.38443,-4.02514 1.28711,-6.88476 -0.34365,-0.89549 -2.83397,-2.7484 -5.53516,-4.11719 -2.7012,-1.36879 -5.81462,-3.93494 -6.92968,-5.70312 -1.65896,-2.63074 -1.94976,-4.42532 -1.60352,-9.87109 0.16885,-2.65577 0.57681,-4.88963 1.20899,-6.8457 z m 93.38843,0 c 0,0 -0.0888,0.0643 -0.10323,0.0762 -2.3983,1.97023 -8.54392,4.08295 -17.63281,6.06055 -5.00229,1.08839 -10.1082,2.63902 -11.3457,3.44531 -2.63057,1.7139 -2.96258,5.56282 -0.67774,7.84765 0.86428,0.86431 2.66428,1.57032 4,1.57032 1.6939,0 2.42774,0.55885 2.42774,1.8457 0,2.33828 3.06825,5.16305 5.57812,5.13281 1.05668,-0.0122 2.87318,-0.79971 4.03516,-1.75 1.16201,-0.95025 3.94944,-4.48008 6.19531,-7.84375 2.24583,-3.36366 5.49281,-7.301 7.21484,-8.75 1.72203,-1.44899 4.30239,-2.92767 5.73438,-3.28711 1.55871,-0.39122 3.62108,-0.0823 5.13867,0.76953 1.39423,0.78259 3.17884,3.11528 3.9668,5.18555 1.14285,3.00302 1.20097,4.53901 0.28515,7.5957 -0.63133,2.10728 -2.0724,5.00781 -3.20312,6.44532 -1.13072,1.43746 -5.65137,4.48378 -10.04492,6.76953 -5.46875,2.84515 -8.46383,5.07611 -9.4961,7.07226 -0.86865,1.67906 -1.22683,3.84838 -0.8457,5.11524 0.99311,3.30119 6.37618,8.52741 9.48828,9.21094 1.5275,0.3355 4.23351,-0.0316 6.09961,-0.82618 1.84449,-0.78527 4.34407,-2.50312 5.55469,-3.81836 1.21066,-1.31523 3.08317,-4.41076 4.16211,-6.8789 1.07894,-2.46815 2.70648,-8.503 3.61523,-13.41211 0.90879,-4.90912 2.31888,-10.2172 3.13477,-11.79492 0.81585,-1.57769 2.92474,-3.7467 4.68554,-4.82032 1.76077,-1.07365 4.78841,-1.95502 6.72852,-1.95703 1.94014,-0.002 4.52762,0.69851 5.75,1.55469 2.49623,1.74841 2.86833,5.29048 1.0918,10.38672 -0.84975,2.43738 -0.83596,4.22459 0.0547,7.19727 0.79329,2.64782 2.24123,4.59768 4.38086,5.90234 1.75756,1.07165 4.82222,1.95112 6.81055,1.95312 2.17625,0.002 4.69049,-0.84214 6.31641,-2.12109 1.48554,-1.16848 3.81178,-3.88573 5.16992,-6.03711 1.35813,-2.15142 3.91557,-4.79306 5.68359,-5.87109 1.76803,-1.078 4.69726,-1.96288 6.50977,-1.96485 2.21507,-0.003 4.1434,0.84457 5.88281,2.58399 2.37419,2.37418 2.53766,3.07049 1.97852,8.41992 -0.50276,4.8102 -0.28085,6.23474 1.26562,8.14453 1.85609,2.29217 1.8464,2.34865 -1.02344,5.61719 -2.16397,2.46459 -2.89843,4.31444 -2.89843,7.29883 0,2.19851 0.60976,5.45749 1.35546,7.24218 0.74571,1.78473 3.72814,5.93167 6.62696,9.2168 2.89878,3.28513 5.88904,7.42157 6.64453,9.19141 0.75549,1.76984 1.37305,4.27938 1.37305,5.57617 0,1.29679 -1.16076,3.44787 -2.58008,4.78125 -2.12829,1.99941 -3.61355,2.42383 -8.47266,2.42383 -4.60002,0 -6.34013,-0.44752 -7.93555,-2.04297 -1.33001,-1.32998 -2.50193,-4.64671 -3.35546,-9.5 -0.72121,-4.10113 -2.05691,-8.88282 -2.96875,-10.62695 -0.91185,-1.74414 -3.03471,-4.15244 -4.71875,-5.35157 -1.68405,-1.19917 -4.78833,-2.41222 -6.89844,-2.69531 -2.11011,-0.28301 -5.46322,0.0217 -7.45117,0.67773 -5.35575,1.76758 -12.10269,9.04651 -14.64454,15.80079 -2.88041,7.65388 -2.35517,14.47073 1.60547,20.87695 1.60732,2.59975 5.15695,6.3327 7.88868,8.29492 4.7659,3.42323 5.31087,3.56641 13.49804,3.56641 8.09386,0 9.05239,-0.24405 18.63867,-4.75 5.55803,-2.61249 11.19529,-4.75 12.52735,-4.75 1.33209,0 3.42215,0.70241 4.64453,1.55859 1.22237,0.85618 2.22266,2.6003 2.22266,3.87695 0,1.27665 -0.67292,3.93407 -1.4961,5.9043 -1.1554,2.76529 -1.24517,4.13617 -0.39062,6.01172 1.00119,2.19734 4.61854,4.64844 6.85742,4.64844 0.48193,0 2.26095,-1.16399 3.95312,-2.58789 2.40427,-2.02303 3.07655,-3.38909 3.07618,-6.25 -2.7e-4,-2.01358 -0.92485,-6.08911 -2.05274,-9.05664 -1.12789,-2.96754 -2.2842,-8.14254 -2.57031,-11.5 -0.41235,-4.83633 -0.12141,-6.83258 1.40234,-9.60547 1.05782,-1.92503 3.40778,-4.51251 5.22071,-5.75 1.81296,-1.2375 4.78376,-2.25 6.60156,-2.25 1.8178,0 4.43756,0.51737 5.82226,1.14843 1.43906,0.65568 2.98345,2.55679 3.60352,4.43555 0.7773,2.35812 0.77875,4.42129 0.004,7.29883 -0.59415,2.20645 -3.55142,7.27103 -6.57032,11.25586 -3.01889,3.98479 -5.92345,8.86159 -6.45507,10.83594 -1.27817,4.74682 0.2984,10.33457 3.6621,12.98047 1.89253,1.48868 4.07487,2.04687 8.01563,2.04687 1.39121,0 2.91876,-0.14919 4.31445,-0.375 v -59.31836 c -0.52472,-0.39371 -1.05171,-0.75834 -1.55078,-1.04101 -2.27297,-1.28746 -5.6383,-2.23154 -7.94336,-2.22852 -2.19999,0.003 -5.81124,0.82709 -8.02344,1.83203 -2.21219,1.00494 -5.47258,3.27923 -7.24609,5.05273 -3.22454,3.22455 -3.22528,3.2247 -4.22851,0.58594 -1.52531,-4.01181 -1.19877,-13.97904 0.60546,-18.48828 0.90879,-2.27119 1.33821,-5.09963 0.98633,-6.50195 -0.34265,-1.36513 -1.95393,-3.17081 -3.58008,-4.01172 -2.6714,-1.38146 -2.85726,-1.78883 -1.92968,-4.22852 0.56462,-1.48509 0.75044,-3.79638 0.41406,-5.13671 -0.33638,-1.34034 -2.38554,-5.38016 -4.55469,-8.97657 -2.97834,-4.93821 -3.94336,-7.59995 -3.94336,-10.87109 0,-2.72814 0.96629,-6.18013 2.61133,-9.32617 0.31398,-0.60049 0.74068,-1.27836 1.19727,-1.96875 l -21.89665,-2e-5 c -1.91649,1.45546 -3.71444,1.99454 -6.8221,1.98439 -2.52696,-0.008 -5.07045,-0.34593 -5.65235,-0.75 -0.28864,-0.20047 -0.74054,-0.6595 -1.23437,-1.23437 h -10.57813 c -0.27748,0.86457 -0.67817,1.624 -1.14062,2.00781 -0.94553,0.78448 -3.03177,1.04946 -5.58594,0.70703 -2.38001,-0.31921 -4.04763,-1.06542 -5.88907,-2.71486 z m -74.13453,8.166 c 0.30693,-0.0489 0.66127,-0.0397 1.07617,0.0195 1.21244,0.17318 2.36142,1.13529 2.55274,2.13868 0.19133,1.00342 -0.43608,2.69093 -1.39453,3.75 -0.95846,1.05909 -2.13713,1.92578 -2.61914,1.92578 -1.39407,0 -2.08648,-2.77833 -1.38672,-5.56641 0.36316,-1.44683 0.85069,-2.12087 1.77148,-2.26758 z m 206.80078,6.26367 c -5.74319,0.40113 -8.06602,0.98802 -10.61718,2.32422 -4.67018,2.44611 -9.08194,7.22864 -9.98438,10.82422 -0.33638,1.33263 -0.32264,3.56453 0.0273,4.95899 0.77946,3.10552 4.62189,4.77785 8.01368,3.48828 1.33904,-0.5091 4.82653,-3.08992 7.75,-5.73438 1.80465,-1.63242 3.37966,-2.98868 4.81054,-4.16015 z m -180.6582,4.39649 c -1.17533,-0.0658 -2.08032,0.0123 -2.46484,0.25 -1.56561,0.9676 -1.17698,1.45867 4.62304,5.84375 2.2,1.66329 4.69828,3.03762 5.55078,3.05273 0.8525,0.0153 2.09,-0.51185 2.75,-1.17187 1.53785,-1.53793 1.54389,-4.46906 0.0117,-5.41602 -0.65308,-0.40361 -3.52412,-1.27734 -6.38086,-1.9414 -1.4684,-0.3413 -2.91452,-0.55145 -4.08984,-0.61719 z m 180.6582,16.23633 c -3.13189,1.70743 -5.91484,3.3039 -6.85937,4.04687 -1.42575,1.12154 -3.3865,3.24268 -4.35742,4.71485 -0.97089,1.47212 -1.76771,4.29426 -1.77149,6.27148 -0.009,4.9708 2.88852,7.43332 8.59961,7.30859 1.63166,-0.0356 3.15232,-0.34038 4.38867,-0.79882 z m -116.63867,17.21093 c -1.45669,-0.14854 -3.26499,1.81114 -2.69336,3.30079 0.30115,0.78478 0.68621,1.42578 0.85742,1.42578 0.17118,0 1.02261,-0.27174 1.89258,-0.60547 1.79411,-0.68844 2.10575,-2.9536 0.53906,-3.92188 -0.1857,-0.11477 -0.3876,-0.178 -0.5957,-0.19922 z m 43.28711,18.13086 c 1.83018,-0.0423 3.76755,0.75866 5.60156,2.36914 2.53334,2.2246 2.19989,6.87042 -0.70312,9.77344 -1.64996,1.64995 -3.57793,2.45313 -5.87891,2.45313 -1.88266,0 -3.97961,-0.67023 -4.66015,-1.49024 -0.82969,-0.99964 -1.01388,-2.98359 -0.5586,-6.01953 0.48,-3.20088 1.37908,-4.98625 3.06641,-6.0918 0.97587,-0.63941 2.0347,-0.96875 3.13281,-0.99414 z m -22.9043,42.80274 c -1.36498,-0.0601 -2.54957,0.21782 -3.24023,0.79101 -0.82636,0.68584 -1.50391,2.25675 -1.50391,3.49024 0,1.23348 0.93232,3.42777 2.07227,4.87695 1.1399,1.44915 3.01761,2.63477 4.17187,2.63477 1.15427,0 2.92193,-0.74404 3.92774,-1.6543 2.14053,-1.93712 2.41658,-6.61322 0.48437,-8.2168 -0.73992,-0.61409 -2.76434,-1.39951 -4.49804,-1.74609 -0.48301,-0.0966 -0.95907,-0.15576 -1.41407,-0.17578 z m 37.47852,8.11133 c -0.64465,0.0161 -1.27086,0.0652 -1.8418,0.15039 -2.26609,0.3383 -6.17924,1.92193 -8.69531,3.51757 -2.51611,1.59568 -5.29995,4.30513 -6.1875,6.02149 -2.2981,4.44401 -1.5914,8.85518 1.82812,11.39453 2.45409,1.82241 4.23226,2.09986 13.5,2.10742 6.53156,0.006 11.50556,0.48331 12.81641,1.22852 1.17819,0.66977 3.31567,2.61184 4.75,4.3164 3.38899,4.02758 3.55562,9.30649 0.35742,11.30469 -1.23753,0.77318 -4.88426,1.65713 -8.10351,1.96289 -3.45578,0.32807 -6.63013,1.25801 -7.75,2.27149 -1.34128,1.21383 -1.89649,3.07115 -1.89649,6.33984 0,2.54238 -0.65945,5.56419 -1.46679,6.7168 -0.80735,1.15264 -3.48214,2.60289 -5.94336,3.22265 -2.46119,0.61973 -7.69636,1.12696 -11.63282,1.12696 -6.80621,0 -7.32336,0.16712 -10.55664,3.40039 -2.62314,2.6231 -3.40039,4.23246 -3.40039,7.04492 0,2.53716 0.74677,4.39325 2.45508,6.10156 1.34997,1.35001 3.3086,2.45313 4.35156,2.45313 3.77084,0 8.83369,-2.41048 16.0586,-7.64649 4.05071,-2.93559 9.15115,-5.81846 11.33398,-6.40625 2.18283,-0.58775 5.29538,-0.77633 6.91797,-0.41992 1.62263,0.35637 3.65089,1.71469 4.50586,3.01953 1.08215,1.65169 1.33797,3.37318 0.8418,5.66406 -0.39198,1.80983 -1.54267,4.46336 -2.55664,5.89844 -1.01394,1.43509 -4.99414,4.26513 -8.84571,6.28906 -3.85156,2.02394 -7.6921,4.66242 -8.5332,5.86329 -0.8411,1.20086 -1.5293,3.46725 -1.5293,5.03515 0,2.19844 1.81492,4.74405 7.92774,11.12695 9.04116,9.44062 10.42691,12.92359 7.55273,18.98047 -0.93883,1.97847 -1.99376,3.59698 -2.34375,3.59766 -0.34983,6.4e-4 -1.94295,1.12569 -3.54101,2.5 -0.23083,0.19852 -0.45264,0.3271 -0.67774,0.49805 l 21.89665,0 c 1.63234,-2.46825 3.985,-5.28526 5.91976,-6.98828 2.5313,-2.22815 6.03403,-4.24989 8.00195,-4.61914 1.92488,-0.3611 5.89125,-0.0841 8.81445,0.61718 2.9232,0.70092 6.96954,1.00775 8.99219,0.67969 1.74115,-0.28253 3.98268,-1.06265 5.45703,-1.84375 v -20.03516 c -2.79377,-1.26667 -6.52509,-1.93332 -9.35547,-1.40234 -1.95337,0.36646 -5.7104,2.37479 -8.34961,4.46094 -2.63916,2.08615 -6.05023,4.10627 -7.58007,4.49023 -1.52984,0.38396 -4.64538,0.19556 -6.92383,-0.41797 -2.27845,-0.61353 -5.38405,-2.44317 -6.90039,-4.0664 -1.77498,-1.90012 -3.17443,-4.96347 -3.92969,-8.60157 -0.98464,-4.74296 -0.88766,-7.1078 0.60352,-14.71289 0.97712,-4.98342 1.74678,-10.53621 1.70898,-12.33984 -0.0375,-1.80359 -0.59795,-3.91474 -1.24414,-4.69336 -0.6463,-0.77862 -1.02756,-2.45294 -0.84766,-3.7207 0.24167,-1.70491 0.97708,-2.30664 2.82618,-2.30664 2.129,0 2.65856,0.65618 3.5664,4.42187 0.622,2.5801 1.976,5.02719 3.25,5.87305 1.80971,1.20151 2.7039,1.23279 5.22266,0.18945 1.67134,-0.69229 3.47105,-2.06626 4,-3.05469 1.6066,-3.00192 1.02951,-7.21819 -1.56446,-11.42968 -1.51472,-2.4593 -2.46572,-5.50893 -2.46875,-7.91992 -0.004,-3.32871 0.65538,-4.55685 4.36915,-8.11524 2.40623,-2.30559 6.44277,-4.89515 8.96874,-5.75586 3.45094,-1.17585 5.46799,-1.32414 8.11329,-0.59375 1.93629,0.53462 4.01624,1.9013 4.62304,3.03516 0.60677,1.13386 0.82895,3.52943 0.49219,5.32422 -0.434,2.31337 -2.80512,5.41177 -8.14453,10.64453 -4.14251,4.05978 -8.40744,9.05119 -9.47852,11.09179 -1.07111,2.04057 -1.94921,5.09169 -1.94921,6.78125 -10e-6,1.6896 0.62054,4.55808 1.3789,6.37305 0.75833,1.81501 2.61895,4.27447 4.13477,5.4668 3.25073,2.55704 8.91745,2.85179 14.0039,0.72656 0.40967,-0.17117 0.93012,-0.43714 1.47461,-0.72656 v -60.48242 c -1.76317,-0.21777 -2.7928,-0.69837 -3.35742,-1.58008 -0.866,-1.35235 -0.72088,-2.11896 0.66016,-3.5 0.6688,-0.66878 1.55146,-1.09748 2.69726,-1.34766 v -5.55859 c -0.84569,0.18158 -1.64799,0.42786 -2.31445,0.77539 -1.20136,0.62642 -5.33553,4.42185 -9.18555,8.43359 -5.29878,5.52144 -7.99865,7.55409 -11.11328,8.36328 -2.26303,0.58798 -5.50696,0.79133 -7.20703,0.45118 -1.70011,-0.34005 -4.87156,-2.14222 -7.04883,-4.00586 -2.84655,-2.43655 -4.69351,-5.31343 -6.57617,-10.24024 -1.43996,-3.76838 -3.61632,-7.78721 -4.83594,-8.92969 -1.21965,-1.14247 -3.56872,-2.58984 -5.21875,-3.21679 -1.24713,-0.47384 -3.34339,-0.72419 -5.27734,-0.67578 z m -193.77734,8.73046 c -1.14031,-0.0385 -2.33374,0.0758 -3.44532,0.31446 v 5.55859 c 0.97644,-0.2132 2.13701,-0.30065 3.59571,-0.24414 3.1381,0.12148 4.69329,-0.26591 5.07617,-1.26367 0.30364,-0.79128 -0.003,-2.10778 -0.68164,-2.92578 -0.7313,-0.88126 -2.53707,-1.37157 -4.54492,-1.43946 z m 11.96093,1.45118 c -2.04948,0 -2.98471,0.55607 -3.25,1.93359 -0.20484,1.06364 0.43585,2.52615 1.42578,3.25 h 0.002 c 0.98993,0.72386 2.33184,1.31641 2.98437,1.31641 0.65254,0 1.77901,-0.71288 2.50196,-1.58399 0.95386,-1.14935 1.02637,-2.04089 0.26367,-3.25 -0.58369,-0.92534 -2.32977,-1.66601 -3.92774,-1.66601 z m 179.67188,24.71289 c -0.47418,0.0534 -0.92184,0.23238 -1.25781,0.56836 -0.57487,0.57509 -0.7282,1.55911 -0.33985,2.1875 0.88354,1.4296 3.71292,0.95489 4.26953,-0.7168 0.41006,-1.23151 -1.24933,-2.19934 -2.67187,-2.03906 z m -9.03125,0.35742 c -0.6049,0.14015 -1.20922,0.59398 -2.02344,1.4082 -1.96373,1.96373 -2.70782,6.00316 -1.35547,7.35547 1.15756,1.15759 5.87317,0.72201 7.85156,-0.72461 1.61707,-1.18242 1.72745,-1.77081 0.74024,-3.9375 -0.63848,-1.4013 -2.07284,-3.03629 -3.1875,-3.63281 -0.81572,-0.43657 -1.42049,-0.6089 -2.02539,-0.46875 z m -148.14063,33.62305 c 5.49391,-0.31268 7.43995,0.74247 6.39453,3.46679 -0.28295,0.73735 -1.92758,1.33373 -3.65625,1.32617 -3.46427,-0.0163 -7.85584,-1.923 -8.03125,-3.48632 -0.0617,-0.55 2.32003,-1.13732 5.29297,-1.30664 z m 40.92969,19 c -2.43857,0.25741 -4.83594,2.26802 -4.83594,4.30664 0,0.74642 0.66709,2.02452 1.48242,2.83984 1.62986,1.62985 4.83028,1.19463 6.5625,-0.89258 0.61023,-0.7353 0.96292,-2.37477 0.78321,-3.64258 -0.23209,-1.63721 -1.08718,-2.39123 -2.95117,-2.60742 -0.34323,-0.0398 -0.69265,-0.0407 -1.04102,-0.004 z m 11.87695,9.81054 c -2.08981,-0.002 -5.07847,0.65701 -6.64062,1.46485 -1.56215,0.8078 -4.9055,4.36305 -7.42969,7.90039 -3.45359,4.83976 -5.8808,7.07493 -9.80664,9.03125 -2.86934,1.42987 -6.7244,2.59961 -8.56641,2.59961 -2.24394,0 -4.17708,-0.82944 -5.86132,-2.51368 -2.1734,-2.17337 -2.42822,-3.08762 -1.87696,-6.76367 0.51832,-3.45641 0.23494,-4.76332 -1.51367,-6.98633 -1.85292,-2.35559 -2.86809,-2.73386 -7.32812,-2.71874 -3.50066,0.0111 -6.46388,0.74515 -9.14844,2.26562 -2.18373,1.23685 -4.99623,3.77042 -6.25,5.63086 -3.24348,4.813 -3.01049,10.49282 0.7207,17.58594 1.9097,3.6304 2.77537,6.50515 2.9336,9.5 h 29.57203 c 1.36073,-4.21014 3.85966,-6.99679 7.95336,-8.97852 3.92841,-1.90171 5.4094,-2.05303 14.26171,-1.44336 8.08246,0.55669 10.44415,0.3889 12.99024,-0.92773 1.7115,-0.88505 4.05057,-2.802 5.19726,-4.25977 1.14671,-1.4578 2.54954,-4.37627 3.11719,-6.48437 0.79752,-2.96164 0.69918,-4.63188 -0.43555,-7.34766 -0.80769,-1.93308 -2.9587,-4.42128 -4.77929,-5.53125 -1.8206,-1.10997 -5.01957,-2.02143 -7.10938,-2.02344 z m -90.71289,4.80469 v 20.03906 c 0.23996,-0.127 0.51044,-0.25394 0.70117,-0.3789 1.36277,-0.89295 3.14092,-3.20928 3.95118,-5.14844 1.56557,-3.74699 1.13154,-8.28456 -1.13477,-11.875 -0.63508,-1.00612 -1.92792,-1.91656 -3.51758,-2.63672 z m 169.76172,6.33399 c -1.73152,0.002 -2.74071,0.68407 -4.71484,2.6582 -1.6755,1.6755 -3.04688,4.04826 -3.04688,5.27344 0,1.38776 2.0736,4.23607 5.5,7.55468 4.10914,3.97996 5.5,6.03988 5.5,8.14844 0,0.73421 -0.17179,1.52208 -0.36898,2.22266 l 10.57797,0 c -0.50166,-0.58397 -1.04666,-1.28739 -1.51563,-1.97266 -1.22982,-1.79709 -1.69336,-4.58095 -1.69336,-10.19336 0,-6.57381 -0.3345,-8.10598 -2.25,-10.31055 -1.34233,-1.54492 -3.74357,-2.82781 -5.95312,-3.17968 -0.80001,-0.12735 -1.45798,-0.20199 -2.03516,-0.20117 z"
       transform="scale(0.26458333)"
       sodipodi:nodetypes="cssccccccssccssccscscsccsccscsscsccccsssccsssscsssssccccsccsccssscssssscsssscssssscssssssssssssssssssccsssccsscssscsssscsccccssssscsccsccscsscsccsscsccsscsssscccscsssccscscssccssssssscsssscscsssccsssssscsscscsssscccsscssccsssccsssssscsccscscscccccccsscccscscccsccsccscscssccscssscsssssssssssssssccsscsssssssscsscssscccssssccccsscscssscsscccsccccccccsssccccsccssccccscccccccsscsccssscsssssscssscsssscsccscssscscscsssssssssssscsssssssssccscccccssssssscccsssscscsssscssssssccssccscscsssssccccsccssccsssssscsssssssssscscsccsssssccsssssssscsssccssssssssccccsccsscsccssssc" />
  </g>
  <g
     inkscape:groupmode="layer"
     id="layer2"
     inkscape:label="Capa 2"
     style="display:inline"
     transform="translate(-72.936115,-124.87455)" />
</svg>
